<?xml version="1.0" encoding="UTF-8" standalone="no"?>
<svg
   xmlns:dc="http://purl.org/dc/elements/1.1/"
   xmlns:cc="http://creativecommons.org/ns#"
   xmlns:rdf="http://www.w3.org/1999/02/22-rdf-syntax-ns#"
   xmlns:svg="http://www.w3.org/2000/svg"
   xmlns="http://www.w3.org/2000/svg"
   xmlns:sodipodi="http://sodipodi.sourceforge.net/DTD/sodipodi-0.dtd"
   xmlns:inkscape="http://www.inkscape.org/namespaces/inkscape"
   inkscape:export-ydpi="300"
   inkscape:export-xdpi="300"
   inkscape:export-filename="C:\Users\Martin\Desktop\Archivos Gonzalo\Logos Marcas\Babolat_box.png"
   width="75mm"
   height="75mm"
   viewBox="0 0 75 75"
   version="1.1"
   id="svg8"
   inkscape:version="1.0 (4035a4fb49, 2020-05-01)"
   sodipodi:docname="Logo_negro.svg">
  <defs
     id="defs2">
    <clipPath
       clipPathUnits="userSpaceOnUse"
       id="clipPath1026">
      <rect
         style="fill:#000000;fill-opacity:1;stroke:none;stroke-width:6.8;stroke-linecap:round;stroke-linejoin:round;stroke-miterlimit:4;stroke-dasharray:none;stroke-opacity:1"
         id="rect1028"
         width="100.76061"
         height="30.201456"
         x="252.5697"
         y="119.46947" />
    </clipPath>
  </defs>
  <sodipodi:namedview
     id="base"
     pagecolor="#ffffff"
     bordercolor="#666666"
     borderopacity="1.0"
     inkscape:pageopacity="0.0"
     inkscape:pageshadow="2"
     inkscape:zoom="0.35355339"
     inkscape:cx="76.723104"
     inkscape:cy="261.03167"
     inkscape:document-units="mm"
     inkscape:current-layer="layer1"
     inkscape:document-rotation="0"
     showgrid="false"
     inkscape:snap-bbox="true"
     inkscape:snap-center="true"
     inkscape:snap-smooth-nodes="true"
     showguides="true"
     inkscape:guide-bbox="true"
     inkscape:snap-intersection-paths="true"
     inkscape:snap-global="false"
     inkscape:object-paths="true"
     inkscape:window-width="1920"
     inkscape:window-height="1017"
     inkscape:window-x="-8"
     inkscape:window-y="-8"
     inkscape:window-maximized="1" />
  <metadata
     id="metadata5">
    <rdf:RDF>
      <cc:Work
         rdf:about="">
        <dc:format>image/svg+xml</dc:format>
        <dc:type
           rdf:resource="http://purl.org/dc/dcmitype/StillImage" />
        <dc:title></dc:title>
      </cc:Work>
    </rdf:RDF>
  </metadata>
  <g
     inkscape:label="Layer 1"
     inkscape:groupmode="layer"
     id="layer1">
    <g
       inkscape:export-ydpi="300"
       inkscape:export-xdpi="300"
       inkscape:export-filename="C:\Users\Martin\Desktop\Archivos Gonzalo\Identidad Padel Point\Logotipo_negro.png"
       transform="translate(-742.13932,294.10339)"
       id="g1844">
      <path
         style="color:#000000;font-style:normal;font-variant:normal;font-weight:normal;font-stretch:normal;font-size:medium;line-height:normal;font-family:sans-serif;font-variant-ligatures:normal;font-variant-position:normal;font-variant-caps:normal;font-variant-numeric:normal;font-variant-alternates:normal;font-variant-east-asian:normal;font-feature-settings:normal;font-variation-settings:normal;text-indent:0;text-align:start;text-decoration:none;text-decoration-line:none;text-decoration-style:solid;text-decoration-color:#000000;letter-spacing:normal;word-spacing:normal;text-transform:none;writing-mode:lr-tb;direction:ltr;text-orientation:mixed;dominant-baseline:auto;baseline-shift:baseline;text-anchor:start;white-space:normal;shape-padding:0;shape-margin:0;inline-size:0;clip-rule:nonzero;display:inline;overflow:visible;visibility:visible;opacity:1;isolation:auto;mix-blend-mode:normal;color-interpolation:sRGB;color-interpolation-filters:linearRGB;solid-color:#000000;solid-opacity:1;vector-effect:none;fill:#1a1a1a;fill-opacity:1;fill-rule:nonzero;stroke:none;stroke-width:6.8;stroke-linecap:round;stroke-linejoin:round;stroke-miterlimit:4;stroke-dasharray:none;stroke-dashoffset:0;stroke-opacity:1;color-rendering:auto;image-rendering:auto;shape-rendering:auto;text-rendering:auto;enable-background:accumulate;stop-color:#000000;stop-opacity:1"
         d="m 774.74248,-287.13674 a 3.4,3.4 0 0 0 -0.86454,0.11524 c -10.46348,2.79626 -18.11292,12.35452 -18.11311,23.6027 -2.4e-4,13.45586 10.98038,24.43665 24.43624,24.43675 13.45609,2.2e-4 24.43699,-10.98066 24.43674,-24.43675 -1.8e-4,-11.24818 -7.64963,-20.80644 -18.1131,-23.6027 a 3.4,3.4 0 0 0 -4.16254,2.40657 3.4,3.4 0 0 0 2.40657,4.16253 c 7.53787,2.01443 13.06935,8.86235 13.06949,17.0336 1.8e-4,9.7811 -7.85606,17.63733 -17.63716,17.63716 -9.78093,-7e-5 -17.63683,-7.85624 -17.63665,-17.63716 1.3e-4,-8.17125 5.53161,-15.01917 13.06948,-17.0336 a 3.4,3.4 0 0 0 2.40657,-4.16253 3.4,3.4 0 0 0 -3.29799,-2.52181 z"
         id="path1006" />
      <path
         id="path1008"
         style="fill:#1a1a1a;fill-opacity:1;stroke:none;stroke-width:1;stroke-linecap:round;stroke-linejoin:round"
         d="m 780.20107,-277.35646 a 13.937872,13.937872 0 0 0 -8.79999,3.12953 c 2.7778,2.76582 4.50051,6.59078 4.50051,10.80916 0,4.21838 -1.72272,8.04243 -4.50051,10.80761 a 13.937872,13.937872 0 0 0 8.79999,3.12952 13.937872,13.937872 0 0 0 8.79997,-3.12952 c -2.77727,-2.76518 -4.49946,-6.58923 -4.49946,-10.80761 0,-4.21838 1.72218,-8.04334 4.49946,-10.80916 a 13.937872,13.937872 0 0 0 -8.79997,-3.12953 z m 10.67376,4.97489 c -2.30382,2.28394 -3.72897,5.45266 -3.72897,8.9638 0,3.51073 1.42458,6.6794 3.72794,8.96328 a 13.937872,13.937872 0 0 0 3.26543,-8.9638 13.937872,13.937872 0 0 0 -3.2644,-8.96328 z m -21.34753,5.2e-4 a 13.937872,13.937872 0 0 0 -3.26389,8.96276 13.937872,13.937872 0 0 0 3.2644,8.96328 c 2.30306,-2.28384 3.72742,-5.45228 3.72742,-8.96276 0,-3.51074 -1.42457,-6.6794 -3.72793,-8.96328 z" />
      <path
         d="m 798.3761,-247.11496 -18.17512,4.51445 -18.17408,-4.51394 15.36082,17.12402 h 5.2e-4 c 0.71642,0.79964 1.73913,1.25652 2.81274,1.25677 1.07338,-2.5e-4 2.09584,-0.45695 2.81224,-1.25625 l 5.1e-4,-5.2e-4 z"
         style="fill:#1a1a1a;fill-opacity:1;stroke:none;stroke-width:6.80003;stroke-linecap:round;stroke-linejoin:round;stroke-miterlimit:4;stroke-dasharray:none;stroke-opacity:1"
         id="path984" />
    </g>
  </g>
</svg>
