<?xml version="1.0" encoding="UTF-8" standalone="no"?>
<svg
   xmlns:dc="http://purl.org/dc/elements/1.1/"
   xmlns:cc="http://creativecommons.org/ns#"
   xmlns:rdf="http://www.w3.org/1999/02/22-rdf-syntax-ns#"
   xmlns:svg="http://www.w3.org/2000/svg"
   xmlns="http://www.w3.org/2000/svg"
   xmlns:sodipodi="http://sodipodi.sourceforge.net/DTD/sodipodi-0.dtd"
   xmlns:inkscape="http://www.inkscape.org/namespaces/inkscape"
   inkscape:export-ydpi="300"
   inkscape:export-xdpi="300"
   inkscape:export-filename="C:\Users\Martin\Desktop\Archivos Gonzalo\Logos Marcas\Babolat_box.png"
   width="172mm"
   height="43mm"
   viewBox="0 0 172 43"
   version="1.1"
   id="svg8"
   inkscape:version="1.0 (4035a4fb49, 2020-05-01)"
   sodipodi:docname="Adidas.svg">
  <defs
     id="defs2">
    <clipPath
       clipPathUnits="userSpaceOnUse"
       id="clipPath1026">
      <rect
         style="fill:#000000;fill-opacity:1;stroke:none;stroke-width:6.8;stroke-linecap:round;stroke-linejoin:round;stroke-miterlimit:4;stroke-dasharray:none;stroke-opacity:1"
         id="rect1028"
         width="100.76061"
         height="30.201456"
         x="252.5697"
         y="119.46947" />
    </clipPath>
  </defs>
  <sodipodi:namedview
     id="base"
     pagecolor="#ffffff"
     bordercolor="#666666"
     borderopacity="1.0"
     inkscape:pageopacity="0.0"
     inkscape:pageshadow="2"
     inkscape:zoom="0.1767767"
     inkscape:cx="-1057.265"
     inkscape:cy="163.79729"
     inkscape:document-units="mm"
     inkscape:current-layer="layer1"
     inkscape:document-rotation="0"
     showgrid="false"
     inkscape:snap-bbox="true"
     inkscape:snap-center="true"
     inkscape:snap-smooth-nodes="true"
     showguides="true"
     inkscape:guide-bbox="true"
     inkscape:snap-intersection-paths="true"
     inkscape:snap-global="false"
     inkscape:object-paths="true"
     inkscape:window-width="1920"
     inkscape:window-height="1017"
     inkscape:window-x="-8"
     inkscape:window-y="-8"
     inkscape:window-maximized="1" />
  <metadata
     id="metadata5">
    <rdf:RDF>
      <cc:Work
         rdf:about="">
        <dc:format>image/svg+xml</dc:format>
        <dc:type
           rdf:resource="http://purl.org/dc/dcmitype/StillImage" />
        <dc:title></dc:title>
      </cc:Work>
    </rdf:RDF>
  </metadata>
  <g
     inkscape:label="Layer 1"
     inkscape:groupmode="layer"
     id="layer1">
    <g
       transform="translate(-170.58882,2.1808652)"
       id="g1495">
      <path
         inkscape:export-ydpi="300"
         inkscape:export-xdpi="300"
         inkscape:export-filename="C:\Users\Martin\Desktop\Archivos Gonzalo\Logos Marcas\Adidas_no_box.png"
         d="m 319.49274,10.655044 c -0.7501,0 -1.33532,0.5254 -1.33532,1.29036 0,0.76498 0.58862,1.28571 1.33532,1.28571 0.7466,0 1.33532,-0.52406 1.33532,-1.28571 0,-0.76496 -0.58532,-1.29036 -1.33532,-1.29036 z m -0.0429,0.368969 a 0.90133529,0.90133529 0 0 1 0.0413,5.17e-4 0.90466118,0.90466118 0 0 1 0.92966,0.920874 0.90632419,0.90632419 0 0 1 -0.92966,0.91829 0.89800932,0.89800932 0 0 1 -0.92966,-0.91829 0.90133529,0.90133529 0 0 1 0.88832,-0.921391 z"
         style="stroke-width:9.11071"
         id="path6" />
      <path
         inkscape:export-ydpi="300"
         inkscape:export-xdpi="300"
         inkscape:export-filename="C:\Users\Martin\Desktop\Archivos Gonzalo\Logos Marcas\Adidas_no_box.png"
         d="m 318.94704,11.251906 v 1.386996 h 0.35088 0.003 v -0.590145 h 0.0568 l 0.31781,0.590145 h 0.40256 l -0.3576,-0.603581 c 0.188,-0.0083 0.33383,-0.104889 0.33383,-0.364319 0,-0.33417 -0.21767,-0.419096 -0.58187,-0.419096 z m 0.34933,0.238229 h 0.1695 c 0.1015,0 0.22117,0.01154 0.22117,0.146244 0,0.14312 -0.068,0.174666 -0.1912,0.174666 h -0.19947 z"
         style="fill:#000000;stroke-width:9.11071"
         id="path1323" />
      <path
         inkscape:export-ydpi="300"
         inkscape:export-xdpi="300"
         inkscape:export-filename="C:\Users\Martin\Desktop\Archivos Gonzalo\Logos Marcas\Adidas_no_box.png"
         d="m 289.71885,8.9342186 v 5.6503004 c -4.5198,-3.310809 -10.88461,-0.08327 -10.88461,5.519043 0,5.602381 6.36481,8.830361 10.88461,5.519561 v 1.210778 h 2.94245 V 8.9342186 Z m -4.02973,7.1504674 c 5.3609,0.002 5.35788,8.04348 -0.01,8.04137 -5.3611,-0.002 -5.35798,-8.04348 0.01,-8.04137 z"
         style="fill:#000000;stroke-width:9.11071"
         id="path1321" />
      <path
         inkscape:export-ydpi="300"
         inkscape:export-xdpi="300"
         inkscape:export-filename="C:\Users\Martin\Desktop\Archivos Gonzalo\Logos Marcas\Adidas_no_box.png"
         d="m 300.90938,13.252818 c -3.52652,0.02792 -6.81302,2.827208 -6.81302,6.852295 0,5.600099 6.36147,8.827601 10.88047,5.51956 v 1.210778 h 2.94246 V 13.274522 h -2.94246 v 1.311548 c -1.27097,-0.930389 -2.68751,-1.344176 -4.06745,-1.333252 z m 0.0393,2.831868 c 5.361,0.002 5.35818,8.04348 -0.01,8.04137 -5.361,-0.002 -5.35798,-8.04348 0.01,-8.04137 z"
         style="fill:#000000;stroke-width:9.11071"
         id="path1319" />
      <path
         inkscape:export-ydpi="300"
         inkscape:export-xdpi="300"
         inkscape:export-filename="C:\Users\Martin\Desktop\Archivos Gonzalo\Logos Marcas\Adidas_no_box.png"
         d="m 269.47202,8.9342186 v 5.6503004 c -3.7548,-2.752759 -9.10271,-1.032495 -10.54871,3.393075 -1.4458,4.42558 1.85481,8.971276 6.51071,8.966376 1.45241,0.003 2.8676,-0.460647 4.038,-1.320847 v 1.210778 h 2.94401 V 8.9342186 Z m -4.038,7.1473674 c 5.3629,9.3e-4 5.3614,8.04551 0,8.04447 -5.36309,-9.3e-4 -5.3615,-8.04553 0,-8.04447 z"
         style="fill:#000000;stroke-width:9.11071"
         id="path1317" />
      <path
         style="fill:#000000;stroke-width:9.11071"
         d="m 317.27029,17.613237 c -0.1747,-1.09727 -1.0703,-1.92063 -2.5188,-1.92063 -0.7479,0 -2.3928,0.27393 -2.3928,1.24684 0,1.47037 2.4842,1.56642 3.0902,1.61992 3.9908,0.34951 5.1386,2.10168 5.1386,4.16399 0,1.52076 -0.7746,2.66841 -1.8703,3.46657 -0.9414,0.68324 -2.8621,0.9477 -4.0396,0.9477 -2.6102,0 -5.2613,-1.42313 -5.6077,-4.63782 h 2.9424 c 0.1479,1.49557 1.738,2.0938 2.6417,2.0938 1.645,0 2.7912,-0.69742 2.7912,-1.52077 0,-1.27201 -1.2059,-1.54594 -2.9189,-1.74587 -0.9868,-0.11492 -2.8289,-0.42506 -3.6129,-1.07209 -0.8328,-0.69267 -1.5711,-1.44519 -1.5711,-2.79278 -0.01,-2.38031 1.8481,-4.24899 5.4816,-4.26316 3.0479,-0.0127 5.3384,1.76951 5.4124,4.40327 z"
         id="path1315"
         inkscape:export-filename="C:\Users\Martin\Desktop\Archivos Gonzalo\Logos Marcas\Adidas_no_box.png"
         inkscape:export-xdpi="300"
         inkscape:export-ydpi="300" />
      <path
         inkscape:export-ydpi="300"
         inkscape:export-xdpi="300"
         inkscape:export-filename="C:\Users\Martin\Desktop\Archivos Gonzalo\Logos Marcas\Adidas_no_box.png"
         d="m 250.34657,13.252818 c -3.5265,0.02792 -6.81302,2.827208 -6.81302,6.852295 0,5.600099 6.36148,8.827601 10.88048,5.51956 v 1.210778 h 2.9409 V 13.274522 h -2.9409 v 1.311548 c -1.27097,-0.930389 -2.68752,-1.344176 -4.06746,-1.333252 z m 0.0279,2.831868 c 5.3609,0 5.3609,8.04137 0,8.04137 -5.3609,0 -5.3609,-8.04137 0,-8.04137 z"
         style="fill:#000000;stroke-width:9.11071"
         id="path14" />
      <path
         id="path22"
         d="m 274.52549,12.328367 h 2.9423 V 8.9342274 h -2.9423 z m 0,14.50701 h 2.9423 v -13.69625 h -2.9423 z"
         style="fill:#000000;stroke-width:9.11071"
         inkscape:export-filename="C:\Users\Martin\Desktop\Archivos Gonzalo\Logos Marcas\Adidas_no_box.png"
         inkscape:export-xdpi="300"
         inkscape:export-ydpi="300" />
      <rect
         style="opacity:1;fill:#000000;fill-opacity:1;stroke:none;stroke-width:2.69999;stroke-linecap:round;stroke-linejoin:round;stroke-miterlimit:4;stroke-dasharray:none"
         id="rect1325"
         width="46.552029"
         height="2.7723465"
         x="192.35381"
         y="23.85342"
         inkscape:export-filename="C:\Users\Martin\Desktop\Archivos Gonzalo\Logos Marcas\Adidas_no_box.png"
         inkscape:export-xdpi="300"
         inkscape:export-ydpi="300" />
      <rect
         y="13.521052"
         x="192.35381"
         height="2.7723465"
         width="46.552029"
         id="rect1331"
         style="opacity:1;fill:#000000;fill-opacity:1;stroke:none;stroke-width:2.69999;stroke-linecap:round;stroke-linejoin:round;stroke-miterlimit:4;stroke-dasharray:none"
         inkscape:export-filename="C:\Users\Martin\Desktop\Archivos Gonzalo\Logos Marcas\Adidas_no_box.png"
         inkscape:export-xdpi="300"
         inkscape:export-ydpi="300" />
      <rect
         style="opacity:1;fill:#000000;fill-opacity:1;stroke:none;stroke-width:2.69999;stroke-linecap:round;stroke-linejoin:round;stroke-miterlimit:4;stroke-dasharray:none"
         id="rect1333"
         width="46.552029"
         height="2.7723465"
         x="192.35381"
         y="18.687237"
         inkscape:export-filename="C:\Users\Martin\Desktop\Archivos Gonzalo\Logos Marcas\Adidas_no_box.png"
         inkscape:export-xdpi="300"
         inkscape:export-ydpi="300" />
    </g>
  </g>
</svg>
