<?xml version="1.0" encoding="UTF-8" standalone="no"?>
<svg
   xmlns:dc="http://purl.org/dc/elements/1.1/"
   xmlns:cc="http://creativecommons.org/ns#"
   xmlns:rdf="http://www.w3.org/1999/02/22-rdf-syntax-ns#"
   xmlns:svg="http://www.w3.org/2000/svg"
   xmlns="http://www.w3.org/2000/svg"
   xmlns:sodipodi="http://sodipodi.sourceforge.net/DTD/sodipodi-0.dtd"
   xmlns:inkscape="http://www.inkscape.org/namespaces/inkscape"
   inkscape:export-ydpi="300"
   inkscape:export-xdpi="300"
   inkscape:export-filename="C:\Users\Martin\Desktop\Archivos Gonzalo\Logos Marcas\Babolat_box.png"
   width="172mm"
   height="43mm"
   viewBox="0 0 172 43"
   version="1.1"
   id="svg8"
   inkscape:version="1.0 (4035a4fb49, 2020-05-01)"
   sodipodi:docname="Babolat.svg">
  <defs
     id="defs2">
    <clipPath
       clipPathUnits="userSpaceOnUse"
       id="clipPath1026">
      <rect
         style="fill:#000000;fill-opacity:1;stroke:none;stroke-width:6.8;stroke-linecap:round;stroke-linejoin:round;stroke-miterlimit:4;stroke-dasharray:none;stroke-opacity:1"
         id="rect1028"
         width="100.76061"
         height="30.201456"
         x="252.5697"
         y="119.46947" />
    </clipPath>
  </defs>
  <sodipodi:namedview
     id="base"
     pagecolor="#ffffff"
     bordercolor="#666666"
     borderopacity="1.0"
     inkscape:pageopacity="0.0"
     inkscape:pageshadow="2"
     inkscape:zoom="0.1767767"
     inkscape:cx="-1057.265"
     inkscape:cy="163.79729"
     inkscape:document-units="mm"
     inkscape:current-layer="layer1"
     inkscape:document-rotation="0"
     showgrid="false"
     inkscape:snap-bbox="true"
     inkscape:snap-center="true"
     inkscape:snap-smooth-nodes="true"
     showguides="true"
     inkscape:guide-bbox="true"
     inkscape:snap-intersection-paths="true"
     inkscape:snap-global="false"
     inkscape:object-paths="true"
     inkscape:window-width="1920"
     inkscape:window-height="1017"
     inkscape:window-x="-8"
     inkscape:window-y="-8"
     inkscape:window-maximized="1" />
  <metadata
     id="metadata5">
    <rdf:RDF>
      <cc:Work
         rdf:about="">
        <dc:format>image/svg+xml</dc:format>
        <dc:type
           rdf:resource="http://purl.org/dc/dcmitype/StillImage" />
        <dc:title></dc:title>
      </cc:Work>
    </rdf:RDF>
  </metadata>
  <g
     inkscape:label="Layer 1"
     inkscape:groupmode="layer"
     id="layer1">
    <g
       inkscape:export-ydpi="300"
       inkscape:export-xdpi="300"
       inkscape:export-filename="C:\Users\Martin\Desktop\Archivos Gonzalo\Logos Marcas\Babolat_no_box.png"
       style="fill:#111e6c;fill-opacity:1;stroke-width:5.10562"
       transform="matrix(0.19586231,0,0,0.19586231,-79.067411,-78.902772)"
       id="g1442">
      <path
         style="fill:#111e6c;fill-opacity:1;fill-rule:nonzero;stroke-width:0.739873"
         d="m 760.2449,478.87326 -34.02857,0.0594 c -1.23336,0 -2.52936,1.127 -2.86076,2.5624 l -14.36079,63.1715 0.23836,-0.23836 v 0.53628 l 38.67504,0.0594 c 1.07734,0.009 2.89493,-0.0267 4.05199,-0.0594 0.54494,-0.0191 13.47249,-0.44632 18.11896,-1.37003 4.69544,-0.94273 8.7873,-2.66261 12.15143,-5.184 3.01224,-2.21277 5.18173,-4.89588 6.49481,-7.9252 -0.65187,5.12707 1.46911,9.0572 6.31715,11.68451 1.9497,1.12939 4.40276,1.86087 7.27036,2.14558 2.79813,0.28459 13.15361,0.40485 13.58637,0.41715 l 3.93242,0.0596 h 40.16691 0.17869 l 0.11912,-0.17869 0.0594,-0.0595 v -0.0594 l 6.97198,-29.79208 c 3.23203,-11.55923 -0.46954,-18.97309 -10.96476,-22.04796 -2.20935,-0.52341 -4.48817,-0.83853 -6.79318,-1.013 -2.24921,-0.1682 -10.14821,-0.23836 -10.48759,-0.23836 h -3.8732 -29.91734 c -1.20604,0 -2.49634,1.24931 -2.86077,2.80041 l -1.43039,6.13836 c -0.21216,0.92428 -0.0477,1.8267 0.41716,2.38359 0.31535,0.37639 0.69914,0.59584 1.19237,0.59584 h 31.87615 c 5.92881,0.008 9.80542,0.6078 11.50229,1.8472 1.61032,1.17528 1.43039,4.37884 1.43039,4.40959 -0.0882,1.337 -0.94752,2.44282 -1.8472,2.44282 h -22.52627 c -7.93317,0.002 -13.79137,0.46464 -17.40149,1.37002 -4.1078,0.98555 -7.7464,2.90746 -10.78596,5.7204 -2.25832,2.10002 -3.89598,4.42553 -4.94599,6.97198 0.17163,-6.94807 -10.02294,-13.11944 -10.48758,-13.40415 l -0.3576,-0.47672 c 0,-0.38561 0.42069,-0.86882 1.07268,-1.25159 0.0309,-0.009 2.53733,-1.47138 5.95955,-4.40959 3.26506,-2.8061 5.40494,-6.19871 6.31715,-10.07077 0.71314,-3.0669 0.52125,-5.57804 -0.59584,-7.80675 -1.72307,-3.5623 -4.98129,-6.18163 -9.5936,-7.80676 -3.95177,-1.29828 -17.35593,-1.82328 -17.93674,-1.8472 -1.09887,-0.0551 -2.95074,-0.11912 -4.052,-0.11912 z m 360.2153,0.35759 c -1.1992,0 -2.4997,1.24589 -2.8607,2.80041 l -1.788,7.5676 c -0.2122,0.92428 -0.054,1.8267 0.4172,2.38359 0.309,0.3642 0.7646,0.59288 1.2515,0.59584 h 7.2704 c 0.306,0.002 0.5788,0.11901 0.7746,0.3576 0.3518,0.41317 0.4694,1.09135 0.298,1.8472 l -11.0844,49.88123 v 0.0594 0.0596 0.23836 h 0.2979 21.0914 0.2979 v -0.23836 l 11.0843,-49.88123 c 0.306,-1.28234 1.2801,-2.32665 2.2048,-2.32437 h 17.4585 c 1.19,0 2.4428,-1.30512 2.8004,-2.86077 l 1.7879,-7.5676 c 0.217,-0.93966 0.06,-1.83581 -0.4171,-2.38359 -0.3029,-0.36421 -0.7646,-0.53936 -1.2516,-0.53628 h -49.6421 z m -239.04264,0.0596 c -1.22084,0 -2.48951,1.27437 -2.86077,2.86077 l -14.89604,62.27182 -0.0594,0.23836 0.29792,0.0594 v 0.0594 h 0.0594 30.21345 1.13224 1.13223 2.3836 c -0.18894,-0.0444 -1.2812,-0.17048 7.98555,0 13.63192,0.25396 28.11798,-1.49074 32.18364,-15.96655 0.76519,-2.74574 3.25594,-14.01913 3.27758,-14.12162 3.24114,-11.54785 -0.46055,-18.97309 -10.96476,-22.04796 -2.19796,-0.52341 -4.49159,-0.83557 -6.79318,-1.013 -2.25263,-0.15921 -10.15163,-0.24428 -10.48759,-0.23836 h -3.93241 -13.34722 l 2.2048,-9.11756 c 0.20738,-0.94273 0.0582,-1.81759 -0.41716,-2.38359 -0.31204,-0.36728 -0.76803,-0.58981 -1.25159,-0.59584 h -15.85266 z m 149.18814,0.41728 c -1.2242,0 -2.4804,1.28461 -2.8608,2.86076 l -14.896,62.27182 -0.1191,0.29792 0.3576,0.0594 h 0.059 20.0208 0.1787 l 0.06,-0.17869 h 0.059 v -0.0596 l 14.953,-62.27181 c 0.2074,-0.92736 0.046,-1.82329 -0.4172,-2.3836 -0.3243,-0.3642 -0.7678,-0.59891 -1.2515,-0.59595 h -16.1488 z M 747.60377,491.0893 h 7.98555 c 1.11697,0.0115 2.90632,0.0639 3.99277,0.11924 0.0715,0.008 6.71233,0.30589 8.64039,1.13223 2.65691,1.19351 3.63632,2.99857 3.03956,5.5416 -0.61805,2.66944 -2.7036,4.82185 -6.25679,6.37637 -1.43494,0.59994 -2.91657,1.02496 -4.40959,1.25159 -1.47252,0.2264 -4.90954,0.29188 -4.94598,0.29792 -1.11129,0.0246 -2.9348,0.0565 -4.052,0.0595 h -7.44916 c -0.3642,0.002 -0.67339,-0.15079 -0.89387,-0.41705 -0.32753,-0.39176 -0.44187,-0.97542 -0.29792,-1.60918 l 2.44281,-10.60716 c 0.25715,-1.16048 1.24134,-2.14558 2.20479,-2.14558 z m 235.96781,0.17868 c -12.34504,0.002 -22.37822,0.03 -28.48241,4.4096 -6.77952,4.85146 -7.97644,9.89652 -10.54794,20.97744 l -0.23836,1.013 c -3.82309,16.43348 -2.73322,17.40149 2.26401,21.86575 l 0.11913,0.11912 c 5.45732,4.82641 14.12162,5.19083 26.69442,5.184 h 5.42316 c 10.2564,0.14384 20.24859,0.32081 26.45531,-3.57596 5.2887,-3.31516 7.2316,-8.43425 8.3431,-12.51586 0.6488,-2.44281 2.3551,-9.64712 3.3368,-13.93941 l 0.7747,-3.3368 c 1.3768,-5.76937 0.5584,-9.53893 -2.9793,-13.40416 -4.9676,-5.43227 -8.6529,-6.79319 -30.45255,-6.79319 h -0.71508 z m 71.86082,0.53628 c -1.2276,0.008 -2.4337,1.21173 -2.8004,2.80041 l -1.4896,6.13836 c -0.2193,0.92735 -0.062,1.83239 0.4172,2.38359 0.312,0.37343 0.7617,0.59584 1.2516,0.59584 h 31.8192 c 5.9288,-0.008 9.7963,0.61999 11.5023,1.8472 1.6035,1.16617 1.4304,4.37657 1.4304,4.40959 -0.083,1.31309 -0.888,2.44282 -1.788,2.44282 h -22.5263 c -7.9332,-0.002 -13.7914,0.45542 -17.4015,1.37002 -4.0953,0.96722 -7.7464,2.90746 -10.7859,5.7204 -3.0328,2.82546 -4.9825,6.08938 -5.84,9.71317 -1.3894,5.95956 0.5785,10.491 5.9595,13.40416 1.9463,1.12631 4.3925,1.78228 7.2704,2.08522 2.7947,0.29074 13.1992,0.41715 13.6433,0.41715 l 3.9324,0.0594 h 40.2239 l 0.2383,-0.11912 0.06,-0.11912 h -0.06 l 6.972,-29.86041 c 3.232,-11.54785 -0.4191,-18.97309 -10.9055,-22.04796 -2.2219,-0.5356 -4.5041,-0.84775 -6.7932,-1.013 -2.256,-0.16205 -10.2165,-0.25054 -10.5479,-0.23836 h -3.8732 -29.9174 z m -162.05701,13.88247 14.30384,0.0595 c 0.14782,0 3.64998,-0.0114 4.64761,0.0594 1.01618,0.0797 2.01233,0.24109 2.9792,0.47672 4.64306,1.40533 6.26249,4.79452 4.82641,10.07077 0,0.0459 -1.08736,5.184 -1.43038,6.43559 -1.79026,6.60755 -8.16549,7.38993 -14.17857,7.27036 -3.41538,-0.0665 -3.64771,-0.0204 -3.57596,0 h -1.013 -0.47672 -0.53628 -11.20277 l 5.66117,-24.3712 z m 83.72757,0 c 1.36661,-0.0347 2.86533,-7.6e-4 4.46881,0 h 0.3576 c 11.32122,0 13.18778,0.65734 15.67045,3.39717 2.11483,2.35626 1.54768,4.91865 0.71508,8.40236 l -0.23836,0.83432 -0.29792,1.3108 c -0.77134,3.51674 -1.29259,6.07572 -5.00521,8.40237 -3.14661,1.97361 -7.58695,1.91439 -12.92584,1.8472 l -2.86077,-0.0594 c -6.51303,0 -11.02284,-0.19804 -13.76858,-2.62161 -2.58973,-2.31412 -2.40979,-3.71034 -1.19237,-9.29636 0.79878,-3.69098 2.04764,-7.46737 5.60196,-10.01154 2.31412,-1.65474 5.37647,-2.10117 9.47515,-2.2048 z m -235.51227,12.33365 h 7.86597 c 1.13554,0 2.92454,0.0641 3.99277,0.11912 0.0642,0.008 6.66792,0.37912 8.58117,1.25159 2.6535,1.21514 3.62949,2.99857 3.03957,5.5416 -0.63047,2.67172 -2.70931,4.81046 -6.25679,6.31715 -1.39281,0.63353 -2.84369,1.04944 -4.35038,1.25158 -1.49302,0.19907 -4.96534,0.29496 -5.0052,0.29792 -1.14112,0.009 -2.98946,-0.002 -4.052,0 h -7.32958 c -0.3642,0 -0.66428,-0.14474 -0.89387,-0.41715 -0.33061,-0.38561 -0.43572,-0.92189 -0.29792,-1.54883 l 2.44281,-10.66638 c 0.26319,-1.16617 1.30283,-2.14558 2.26402,-2.14558 z m 78.65973,5.89919 h 3.63518 19.18947 c 0.29678,-0.008 0.57876,0.12186 0.77464,0.3576 0.3552,0.41932 0.4159,1.09135 0.23836,1.8472 l -1.013,4.35037 c -0.3092,1.28234 -1.28689,2.38018 -2.2048,2.3836 h -21.15966 c -3.85042,0 -6.57111,-0.35806 -7.98555,-1.013 -1.33472,-0.6275 -1.74129,-1.67068 -1.37003,-3.27759 0.34279,-1.42582 1.21515,-2.56125 2.68197,-3.39716 1.45658,-0.82942 3.61696,-1.07575 3.63518,-1.07267 1.09579,-0.12243 2.69108,-0.17869 3.57596,-0.17869 z m 250.20328,0.41716 h 3.576 19.2464 c 0.2999,0 0.5192,0.12505 0.7151,0.3576 0.3611,0.42547 0.4693,1.13565 0.2979,1.90642 l -1.013,4.29001 c -0.3029,1.27892 -1.3529,2.38018 -2.264,2.38359 h -21.1597 c -3.8538,-0.002 -6.5084,-0.36112 -7.9252,-1.01299 -1.3256,-0.62136 -1.8073,-1.66727 -1.4303,-3.27759 0.3151,-1.39622 1.2276,-2.56694 2.6819,-3.39716 1.4657,-0.81108 3.6762,-1.07267 3.6944,-1.07267 1.0958,-0.11628 2.6877,-0.17277 3.576,-0.17869 z m 76.7579,15.02131 -0.1787,0.77464 h 1.9064 l -1.013,4.88677 h 0.8344 l 1.013,-4.88677 h 1.9064 l 0.1787,-0.77464 h -4.6476 z m 5.7204,0 -1.1924,5.66118 h 0.8344 l 1.013,-4.88677 0.8938,4.88677 h 0.5363 l 2.9792,-4.88677 -1.013,4.88677 h 0.8343 l 1.1924,-5.66118 h -1.37 l -2.5624,4.11122 -0.7747,-4.11122 h -1.37 z"
         fill="#000000"
         id="path1413" />
      <path
         style="fill:#111e6c;fill-opacity:1;fill-rule:nonzero;stroke-width:0.739873"
         d="m 612.38811,471.8216 -26.51962,25.36709 h 104.84949 l 18.19329,-36.77516 h -67.56948 c -7.93305,0 -19.38406,2.25434 -28.95368,11.40807 z m -44.12813,42.21034 -51.70424,49.45719 121.3069,10e-6 c 14.30553,0 22.6307,-5.20563 26.30961,-12.64203 l 18.21309,-36.81518 z m 96.61839,43.37578 -0.17868,0.77464 h 1.90641 l -1.01299,4.94598 h 0.83431 l 1.013,-4.94598 h 1.90642 l 0.17868,-0.77464 h -4.64761 z m 5.7204,0 -1.19237,5.7204 h 0.83432 l 1.01299,-4.94599 0.89388,4.94599 h 0.53628 l 2.97921,-4.94599 -1.013,4.94599 h 0.83431 l 1.19237,-5.7204 h -1.37003 l -2.56239,4.11121 -0.77464,-4.11121 h -1.37002 z"
         fill="#f1d204"
         id="path1415"
         sodipodi:nodetypes="ccccccccscccccccccccccccccccccccccccc" />
    </g>
  </g>
</svg>
