<?xml version="1.0" encoding="UTF-8" standalone="no"?>
<svg
   xmlns:dc="http://purl.org/dc/elements/1.1/"
   xmlns:cc="http://creativecommons.org/ns#"
   xmlns:rdf="http://www.w3.org/1999/02/22-rdf-syntax-ns#"
   xmlns:svg="http://www.w3.org/2000/svg"
   xmlns="http://www.w3.org/2000/svg"
   xmlns:sodipodi="http://sodipodi.sourceforge.net/DTD/sodipodi-0.dtd"
   xmlns:inkscape="http://www.inkscape.org/namespaces/inkscape"
   inkscape:export-ydpi="300"
   inkscape:export-xdpi="300"
   inkscape:export-filename="C:\Users\Martin\Desktop\Archivos Gonzalo\Logos Marcas\Babolat_box.png"
   width="172mm"
   height="43mm"
   viewBox="0 0 172 43"
   version="1.1"
   id="svg8"
   inkscape:version="1.0 (4035a4fb49, 2020-05-01)"
   sodipodi:docname="Bullpadel.svg">
  <defs
     id="defs2">
    <clipPath
       clipPathUnits="userSpaceOnUse"
       id="clipPath1026">
      <rect
         style="fill:#000000;fill-opacity:1;stroke:none;stroke-width:6.8;stroke-linecap:round;stroke-linejoin:round;stroke-miterlimit:4;stroke-dasharray:none;stroke-opacity:1"
         id="rect1028"
         width="100.76061"
         height="30.201456"
         x="252.5697"
         y="119.46947" />
    </clipPath>
  </defs>
  <sodipodi:namedview
     id="base"
     pagecolor="#ffffff"
     bordercolor="#666666"
     borderopacity="1.0"
     inkscape:pageopacity="0.0"
     inkscape:pageshadow="2"
     inkscape:zoom="0.1767767"
     inkscape:cx="914.28827"
     inkscape:cy="-636.49534"
     inkscape:document-units="mm"
     inkscape:current-layer="layer1"
     inkscape:document-rotation="0"
     showgrid="false"
     inkscape:snap-bbox="true"
     inkscape:snap-center="true"
     inkscape:snap-smooth-nodes="true"
     showguides="true"
     inkscape:guide-bbox="true"
     inkscape:snap-intersection-paths="true"
     inkscape:snap-global="false"
     inkscape:object-paths="true"
     inkscape:window-width="1920"
     inkscape:window-height="1017"
     inkscape:window-x="-8"
     inkscape:window-y="-8"
     inkscape:window-maximized="1" />
  <metadata
     id="metadata5">
    <rdf:RDF>
      <cc:Work
         rdf:about="">
        <dc:format>image/svg+xml</dc:format>
        <dc:type
           rdf:resource="http://purl.org/dc/dcmitype/StillImage" />
        <dc:title></dc:title>
      </cc:Work>
    </rdf:RDF>
  </metadata>
  <g
     inkscape:label="Layer 1"
     inkscape:groupmode="layer"
     id="layer1">
    <g
       transform="translate(-3.9874585,1.0583333)"
       id="g1474">
      <path
         id="path1265"
         style="opacity:1;fill:#ff0000;fill-opacity:1;stroke:none;stroke-width:2.69999;stroke-linecap:round;stroke-linejoin:round;stroke-miterlimit:4;stroke-dasharray:none"
         d="m 159.62024,4.8648174 c -8.65378,1e-5 -20.12638,5.1791896 -27.34717,15.3969896 -6.40313,9.06074 -2.20872,16.05018 6.72568,16.05019 8.65378,1e-5 20.36728,-5.48366 27.41126,-15.45126 6.1155,-8.65378 2.09785,-15.9959296 -6.78977,-15.9959196 z m -3.50263,2.20658 c 7.4395,0 10.87149,6.3116096 6.91586,13.7510996 -4.5562,8.56897 -13.80109,13.28291 -21.24056,13.28291 -7.4395,-10e-6 -11.01103,-6.00825 -6.86935,-13.7976 4.21923,-7.93522 13.75455,-13.2364096 21.19405,-13.2364096 z"
         inkscape:export-filename="C:\Users\Martin\Desktop\Archivos Gonzalo\Logos Marcas\Bullpadel_no_box.png"
         inkscape:export-xdpi="300"
         inkscape:export-ydpi="300" />
      <path
         id="path1219"
         style="opacity:1;fill:#000000;stroke:none;stroke-width:0.264583px;stroke-linecap:butt;stroke-linejoin:miter;stroke-opacity:1"
         d="m 74.563916,16.173167 c -1.77715,0 -2.92692,0.5574 -3.55017,0.87644 -0.33745,0.17268 -0.39688,-0.0408 -0.39688,-0.0408 l -5.72624,8.79326 c 0,0 0.0931,-0.14287 0.37568,0.15503 0.42198,0.44489 1.35115,1.24851 3.22717,1.24851 3.3061,0 5.27034,-2.04862 7.03628,-4.68912 0.94316,-1.41027 2.22708,-2.96265 2.05671,-4.41989 -0.14176,-1.21281 -1.07066,-1.9234 -3.02255,-1.9234 z m -2.92385,1.72083 c 0.93197,0 1.1453,0.54952 0.91157,0.9095 l -3.27576,5.04517 c -0.49411,0.76103 -1.40396,1.07487 -2.22882,1.07487 -0.65014,0 -1.14575,-0.34723 -0.67334,-1.07487 l 3.27525,-5.04517 c 0.39733,-0.61197 1.20849,-0.9095 1.9911,-0.9095 z"
         inkscape:export-filename="C:\Users\Martin\Desktop\Archivos Gonzalo\Logos Marcas\Bullpadel_no_box.png"
         inkscape:export-xdpi="300"
         inkscape:export-ydpi="300" />
      <path
         id="rect1174"
         style="opacity:1;fill:#000000;fill-opacity:1;stroke:none;stroke-width:2.69999;stroke-linecap:round;stroke-linejoin:round;stroke-miterlimit:4;stroke-dasharray:none"
         d="m 44.549206,26.789057 h 5.42395 l 8.83047,-13.5599 h -5.42395 z"
         sodipodi:nodetypes="ccccc"
         inkscape:export-filename="C:\Users\Martin\Desktop\Archivos Gonzalo\Logos Marcas\Bullpadel_no_box.png"
         inkscape:export-xdpi="300"
         inkscape:export-ydpi="300" />
      <path
         sodipodi:nodetypes="ccccc"
         d="m 51.891366,26.789057 h 5.42395 l 8.83047,-13.5599 h -5.42395 z"
         style="opacity:1;fill:#000000;fill-opacity:1;stroke:none;stroke-width:2.69999;stroke-linecap:round;stroke-linejoin:round;stroke-miterlimit:4;stroke-dasharray:none"
         id="path1179"
         inkscape:export-filename="C:\Users\Martin\Desktop\Archivos Gonzalo\Logos Marcas\Bullpadel_no_box.png"
         inkscape:export-xdpi="300"
         inkscape:export-ydpi="300" />
      <path
         sodipodi:nodetypes="ccccc"
         d="m 10.711176,26.789057 h 5.37718 l 8.83047,-13.5599 h -5.37718 z"
         style="opacity:1;fill:#000000;fill-opacity:1;stroke:none;stroke-width:2.69999;stroke-linecap:round;stroke-linejoin:round;stroke-miterlimit:4;stroke-dasharray:none"
         id="path1181"
         inkscape:export-filename="C:\Users\Martin\Desktop\Archivos Gonzalo\Logos Marcas\Bullpadel_no_box.png"
         inkscape:export-xdpi="300"
         inkscape:export-ydpi="300" />
      <path
         id="path1189"
         style="opacity:1;fill:#000000;stroke:none;stroke-width:0.264583px;stroke-linecap:butt;stroke-linejoin:miter;stroke-opacity:1"
         d="m 24.918876,13.229167 -1.37252,2.10788 h 3.32279 c 1.26712,0 1.2096,1.17336 0.78291,1.85467 -0.66509,1.06199 -2.06296,1.76992 -3.14347,1.76992 h -3.32279 l -1.20304,1.84743 h 3.3228 c 1.81412,0 1.98268,1.30385 1.55133,1.99264 -0.6777,1.08211 -1.51421,1.90117 -4.0871,1.90117 h -3.32279 l -1.35858,2.08618 h 5.70507 c 3.08192,0 6.30595,-0.31037 8.33128,-3.42046 1.71038,-2.62643 -0.90641,-3.64681 -0.90641,-3.64681 1.52517,-0.0827 3.32933,-0.43797 4.46641,-2.69699 1.07841,-2.14249 -0.82307,-3.79563 -3.2856,-3.79563 z"
         inkscape:export-filename="C:\Users\Martin\Desktop\Archivos Gonzalo\Logos Marcas\Bullpadel_no_box.png"
         inkscape:export-xdpi="300"
         inkscape:export-ydpi="300" />
      <path
         id="path1205"
         style="opacity:1;fill:#000000;fill-opacity:1;stroke:none;stroke-width:2.69999;stroke-linecap:round;stroke-linejoin:round;stroke-miterlimit:4;stroke-dasharray:none"
         d="m 118.63252,26.789057 h 5.42395 l 8.83047,-13.5599 h -5.42395 z"
         sodipodi:nodetypes="ccccc"
         inkscape:export-filename="C:\Users\Martin\Desktop\Archivos Gonzalo\Logos Marcas\Bullpadel_no_box.png"
         inkscape:export-xdpi="300"
         inkscape:export-ydpi="300" />
      <path
         sodipodi:nodetypes="ccccc"
         d="m 37.346296,26.789057 h 5.42395 l 6.72684,-10.32958 h -5.42395 z"
         style="opacity:1;fill:#000000;fill-opacity:1;stroke:none;stroke-width:2.69999;stroke-linecap:round;stroke-linejoin:round;stroke-miterlimit:4;stroke-dasharray:none"
         id="path1207"
         inkscape:export-filename="C:\Users\Martin\Desktop\Archivos Gonzalo\Logos Marcas\Bullpadel_no_box.png"
         inkscape:export-xdpi="300"
         inkscape:export-ydpi="300" />
      <path
         id="path1211"
         style="opacity:1;fill:#000000;fill-opacity:1;stroke:none;stroke-width:2.69999;stroke-linecap:round;stroke-linejoin:round;stroke-miterlimit:4;stroke-dasharray:none"
         d="m 31.119906,23.853147 h 5.42395 l 4.81487,-7.39367 h -5.42395 z"
         sodipodi:nodetypes="ccccc"
         inkscape:export-filename="C:\Users\Martin\Desktop\Archivos Gonzalo\Logos Marcas\Bullpadel_no_box.png"
         inkscape:export-xdpi="300"
         inkscape:export-ydpi="300" />
      <path
         style="opacity:1;fill:#000000;stroke:none;stroke-width:0.264583px;stroke-linecap:butt;stroke-linejoin:miter;stroke-opacity:1"
         d="m 31.119896,23.853147 c -2.61568,4.01664 4.89319,3.83535 6.80526,2.04703 l 1.6153,-2.48043 c -0.96792,1.23773 -1.96129,1.65744 -2.54811,1.52551 -0.51857,-0.11658 -0.70814,-0.69339 -0.44849,-1.09211 z"
         id="path1215"
         sodipodi:nodetypes="cccscc"
         inkscape:export-filename="C:\Users\Martin\Desktop\Archivos Gonzalo\Logos Marcas\Bullpadel_no_box.png"
         inkscape:export-xdpi="300"
         inkscape:export-ydpi="300" />
      <path
         id="path1217"
         style="opacity:1;fill:#000000;fill-opacity:1;stroke:none;stroke-width:2.69999;stroke-linecap:round;stroke-linejoin:round;stroke-miterlimit:4;stroke-dasharray:none"
         d="m 55.867676,31.328317 h 5.42395 l 9.68281,-14.86884 h -5.42395 z"
         sodipodi:nodetypes="ccccc"
         inkscape:export-filename="C:\Users\Martin\Desktop\Archivos Gonzalo\Logos Marcas\Bullpadel_no_box.png"
         inkscape:export-xdpi="300"
         inkscape:export-ydpi="300" />
      <path
         id="path1223"
         style="opacity:1;fill:#000000;stroke:none;stroke-width:0.264583px;stroke-linecap:butt;stroke-linejoin:miter;stroke-opacity:1"
         d="m 99.484896,16.042947 c -3.30611,0 -5.27035,2.04862 -7.03628,4.68912 -0.94316,1.41027 -2.22708,2.96264 -2.05671,4.41988 0.14176,1.21281 1.07066,1.9234 3.02254,1.9234 1.77716,0 2.92693,-0.55739 3.55018,-0.87643 0.33745,-0.17268 0.39688,0.0408 0.39688,0.0408 l 5.824434,-8.94415 c 0,0 -0.0931,0.14287 -0.37568,-0.15503 -0.42199,-0.44489 -0.92842,-1.09761 -3.325364,-1.09761 z m 1.697564,1.84382 c 0.65014,0 1.14575,0.34723 0.67334,1.07487 l -3.275254,5.04517 c -0.39732,0.61196 -1.20848,0.9095 -1.9911,0.9095 -0.93196,0 -1.1453,-0.54952 -0.91156,-0.9095 l 3.27575,-5.04517 c 0.49411,-0.76104 1.403964,-1.07487 2.228824,-1.07487 z"
         inkscape:export-filename="C:\Users\Martin\Desktop\Archivos Gonzalo\Logos Marcas\Bullpadel_no_box.png"
         inkscape:export-xdpi="300"
         inkscape:export-ydpi="300" />
      <path
         sodipodi:nodetypes="ccccc"
         d="m 111.23361,13.229157 h -5.42395 l -8.805834,13.5599 h 5.423954 z"
         style="opacity:1;fill:#000000;fill-opacity:1;stroke:none;stroke-width:2.69999;stroke-linecap:round;stroke-linejoin:round;stroke-miterlimit:4;stroke-dasharray:none"
         id="path1225"
         inkscape:export-filename="C:\Users\Martin\Desktop\Archivos Gonzalo\Logos Marcas\Bullpadel_no_box.png"
         inkscape:export-xdpi="300"
         inkscape:export-ydpi="300" />
      <path
         id="path1231"
         style="opacity:1;fill:#000000;stroke:none;stroke-width:0.264583px;stroke-linecap:butt;stroke-linejoin:miter;stroke-opacity:1"
         d="m 86.717186,16.106507 c -3.52994,5.9e-4 -7.04281,0.90762 -8.05326,3.3569 h 5.20899 c 0.60714,-1.05159 1.80782,-1.64459 2.72851,-1.63659 0.62162,0.005 1.1579,0.4518 0.81339,1.04851 l -0.72036,1.04335 c -5.04748,0.94421 -7.11311,0.91437 -9.432,2.14457 -0.98449,0.52228 -2.94616,2.52002 -2.47581,3.89744 0.45683,1.33785 2.57426,1.33134 3.9765,1.14257 2.0877,-0.28105 3.053,-0.92593 4.10311,-1.4056 l -0.62217,1.17409 h 6.21771 l -0.94052,-0.63304 4.81262,-7.18148 c 0.32914,-0.54238 1.38408,-2.95172 -5.61671,-2.95072 z m -1.21129,5.53403 -1.53117,2.21744 c -0.87826,0.4551 -2.89946,1.40883 -3.21892,0.69039 -0.23474,-0.52782 0.41153,-1.38664 0.87641,-1.76113 0.92831,-0.74778 2.89475,-1.04225 3.87368,-1.1467 z"
         inkscape:export-filename="C:\Users\Martin\Desktop\Archivos Gonzalo\Logos Marcas\Bullpadel_no_box.png"
         inkscape:export-xdpi="300"
         inkscape:export-ydpi="300" />
      <path
         id="path1250"
         style="opacity:1;fill:#000000;fill-opacity:1;stroke:none;stroke-width:0.264583px;stroke-linecap:butt;stroke-linejoin:miter;stroke-opacity:1"
         d="m 117.14427,16.222267 c -4.76075,0 -7.03077,1.19214 -7.98711,2.38125 -1.22589,1.5243 -2.24467,3.11763 -3.20807,4.72942 -1.77416,2.9682 2.05534,3.83646 4.56406,3.83646 7.2825,0 8.63526,-3.14061 9.04545,-3.73724 h -5.34128 c -1.03915,1.79986 -1.67542,2.09526 -2.87115,2.0836 -1.37388,-0.0134 -1.13792,-0.63179 -0.73742,-1.27331 l 1.24023,-1.96784 h 8.17264 l 1.53789,-2.24896 c 1.99773,-2.92141 -1.26381,-3.80338 -4.41524,-3.80338 z m -0.79375,1.50481 c 0.80987,0 1.22857,0.45847 0.77722,1.24024 -0.35878,0.6214 -1.02526,1.5875 -1.02526,1.5875 h -3.14193 c 0.98758,-1.71056 2.11854,-2.82774 3.38997,-2.82774 z"
         inkscape:export-filename="C:\Users\Martin\Desktop\Archivos Gonzalo\Logos Marcas\Bullpadel_no_box.png"
         inkscape:export-xdpi="300"
         inkscape:export-ydpi="300" />
      <path
         id="path1254"
         style="opacity:1;fill:#ff0000;stroke:none;stroke-width:0.264583px;stroke-linecap:butt;stroke-linejoin:miter;stroke-opacity:1"
         d="m 140.15837,12.948557 -1.67897,1.78026 h 12.8819 c 1.03338,0 1.6066,1.15387 1.03611,2.14199 -0.72353,1.2532 -2.38191,2.04431 -3.62974,2.04431 h -14.23686 l -0.71882,0.76223 -0.43564,1.08521 h 14.63167 c 0.92996,0 1.54903,1.11146 0.8568,2.31045 -0.74043,1.28247 -2.31841,2.20555 -5.30251,2.20555 h -11.99825 l -0.90641,2.25878 h 15.28176 c 3.31581,0 7.60301,-0.56765 10.29652,-3.67988 1.83134,-2.11601 -0.29969,-3.67678 -1.44227,-3.67678 -0.0844,0 -0.11517,-0.11062 -0.0543,-0.24236 0.0838,-0.1814 0.17675,-0.21498 0.28784,-0.21498 1.87497,0 4.35534,-0.6007 5.71749,-2.96002 1.68714,-2.92222 -1.01396,-3.81476 -3.66334,-3.81476 z"
         inkscape:export-filename="C:\Users\Martin\Desktop\Archivos Gonzalo\Logos Marcas\Bullpadel_no_box.png"
         inkscape:export-xdpi="300"
         inkscape:export-ydpi="300" />
    </g>
  </g>
</svg>
