<?xml version="1.0" encoding="UTF-8" standalone="no"?>
<svg
   xmlns:dc="http://purl.org/dc/elements/1.1/"
   xmlns:cc="http://creativecommons.org/ns#"
   xmlns:rdf="http://www.w3.org/1999/02/22-rdf-syntax-ns#"
   xmlns:svg="http://www.w3.org/2000/svg"
   xmlns="http://www.w3.org/2000/svg"
   xmlns:sodipodi="http://sodipodi.sourceforge.net/DTD/sodipodi-0.dtd"
   xmlns:inkscape="http://www.inkscape.org/namespaces/inkscape"
   inkscape:export-ydpi="300"
   inkscape:export-xdpi="300"
   inkscape:export-filename="C:\Users\Martin\Desktop\Archivos Gonzalo\Logos Marcas\Babolat_box.png"
   width="172mm"
   height="43mm"
   viewBox="0 0 172 43"
   version="1.1"
   id="svg8"
   inkscape:version="1.0 (4035a4fb49, 2020-05-01)"
   sodipodi:docname="Head.svg">
  <defs
     id="defs2">
    <clipPath
       clipPathUnits="userSpaceOnUse"
       id="clipPath1026">
      <rect
         style="fill:#000000;fill-opacity:1;stroke:none;stroke-width:6.8;stroke-linecap:round;stroke-linejoin:round;stroke-miterlimit:4;stroke-dasharray:none;stroke-opacity:1"
         id="rect1028"
         width="100.76061"
         height="30.201456"
         x="252.5697"
         y="119.46947" />
    </clipPath>
  </defs>
  <sodipodi:namedview
     id="base"
     pagecolor="#ffffff"
     bordercolor="#666666"
     borderopacity="1.0"
     inkscape:pageopacity="0.0"
     inkscape:pageshadow="2"
     inkscape:zoom="0.1767767"
     inkscape:cx="-1057.265"
     inkscape:cy="163.79729"
     inkscape:document-units="mm"
     inkscape:current-layer="layer1"
     inkscape:document-rotation="0"
     showgrid="false"
     inkscape:snap-bbox="true"
     inkscape:snap-center="true"
     inkscape:snap-smooth-nodes="true"
     showguides="true"
     inkscape:guide-bbox="true"
     inkscape:snap-intersection-paths="true"
     inkscape:snap-global="false"
     inkscape:object-paths="true"
     inkscape:window-width="1920"
     inkscape:window-height="1017"
     inkscape:window-x="-8"
     inkscape:window-y="-8"
     inkscape:window-maximized="1" />
  <metadata
     id="metadata5">
    <rdf:RDF>
      <cc:Work
         rdf:about="">
        <dc:format>image/svg+xml</dc:format>
        <dc:type
           rdf:resource="http://purl.org/dc/dcmitype/StillImage" />
        <dc:title></dc:title>
      </cc:Work>
    </rdf:RDF>
  </metadata>
  <g
     inkscape:label="Layer 1"
     inkscape:groupmode="layer"
     id="layer1">
    <g
       transform="translate(-548.52508,4.7625002)"
       id="g1504">
      <g
         id="g1391"
         transform="matrix(1.411876,0,0,1.411876,-620.70943,-728.75597)"
         style="stroke-width:0.708277"
         inkscape:export-filename="C:\Users\Martin\Desktop\Archivos Gonzalo\Logos Marcas\Head_no_box.png"
         inkscape:export-xdpi="300"
         inkscape:export-ydpi="300">
        <path
           style="fill:#000000;stroke-width:0.622006"
           d="m 841.53267,533.65298 c 0.40394,-3.96188 2.41055,-11.48514 6.29475,-11.48514 2.17565,0 3.96014,3.04838 4.80973,5.59815 l 1.7722,-1.02567 c -0.92279,-3.4163 -3.43699,-8.21826 -6.5888,-8.21826 -4.36533,0 -7.69777,8.04537 -8.45735,16.51288 z"
           id="path2" />
        <path
           style="fill:#000000;stroke-width:0.622006"
           d="m 847.78412,523.73473 c -0.7461,0 -1.35166,0.6059 -1.35166,1.35274 0,0.74788 0.60556,1.35337 1.35166,1.35337 0.74595,0 1.35105,-0.60549 1.35105,-1.35337 0,-0.74684 -0.6051,-1.35274 -1.35101,-1.35274"
           id="path4" />
        <path
           d="m 935.69069,525.00082 c -0.24291,0 -0.45053,0.0858 -0.62169,0.25684 -0.17238,0.17208 -0.25837,0.38073 -0.25837,0.62272 0,0.24529 0.0856,0.45228 0.25527,0.62476 0.17209,0.17394 0.38093,0.26096 0.62479,0.26096 0.2453,0 0.45313,-0.087 0.62476,-0.26096 0.17338,-0.17248 0.26046,-0.37994 0.26046,-0.62476 0,-0.24299 -0.0871,-0.45064 -0.26046,-0.62272 -0.17163,-0.17108 -0.37946,-0.25684 -0.62476,-0.25684 z m 0.002,0.12145 c 0.21026,0 0.39161,0.0734 0.54001,0.22272 0.14788,0.14799 0.2217,0.32661 0.2217,0.53745 0,0.21027 -0.0739,0.39119 -0.2217,0.54002 -0.1484,0.1489 -0.32882,0.22169 -0.54001,0.22169 -0.21268,0 -0.39214,-0.0727 -0.54002,-0.22169 -0.14748,-0.14883 -0.21963,-0.32967 -0.21963,-0.54002 0,-0.21084 0.0721,-0.38946 0.2217,-0.53745 0.14747,-0.14935 0.32713,-0.22272 0.53795,-0.22272 z"
           style="fill:#000000;stroke-width:0.62201"
           id="path1377" />
        <path
           d="m 935.67466,525.39098 -0.34261,5.3e-4 v 0.97202 h 0.16483 v -0.38343 h 0.13955 c 0.0921,0 0.15689,0.0109 0.19428,0.032 0.0614,0.0358 0.0946,0.10983 0.0946,0.22326 v 0.076 l 0.003,0.032 c 0,0.004 0.003,0.008 0.003,0.0109 v 0.009 h 0.1607 l -0.008,-0.0124 c -0.003,-0.008 -0.007,-0.0254 -0.008,-0.0501 -0.003,-0.0259 -0.003,-0.0492 -0.003,-0.0723 v -0.0718 c 0,-0.0482 -0.0154,-0.099 -0.0496,-0.15139 -0.0359,-0.0511 -0.0901,-0.0826 -0.16486,-0.0946 0.0581,-0.0102 0.10544,-0.0253 0.13954,-0.047 0.0628,-0.0401 0.094,-0.10467 0.094,-0.19121 0,-0.12234 -0.0495,-0.20347 -0.15193,-0.24596 -0.0572,-0.0232 -0.14509,-0.0352 -0.26561,-0.0352 z m -0.17778,0.12144 h 0.1509 c 0.0989,0 0.17004,0.0124 0.21447,0.0351 0.0435,0.0246 0.0656,0.0711 0.0656,0.1416 0,0.0732 -0.0348,0.12237 -0.10281,0.14936 -0.0379,0.0138 -0.093,0.0212 -0.16899,0.0212 h -0.15918 z"
           style="fill:#000000;stroke-width:0.62201"
           id="path1373" />
        <path
           d="m 886.10042,526.78626 v 8.18917 l 18.91202,5e-4 0.97049,-1.32807 h 7.95248 l 0.96842,1.32807 h 16.31114 c 1.23555,0 2.55437,-0.47892 3.17656,-1.74667 0.71086,-1.44595 0.75989,-3.32004 -0.007,-4.69635 l 10e-4,10e-4 c -0.62331,-1.26873 -1.94265,-1.7472 -3.17863,-1.7472 h -12.3708 l -0.004,7.89152 -5.74024,-7.89152 -6.27507,0.004 -5.74072,7.88323 0.003,-1.56684 -11.32695,5.3e-4 v -1.29243 h 11.32695 v -1.86915 l -11.32748,-5.1e-4 v -1.29087 l 11.32541,5e-4 10e-4,-1.86912 z m 23.3531,2.08462 h 1.00304 l 2.12751,2.92077 -5.26221,10e-4 z m 13.04933,0.49041 h 7.78145 c 0.35621,-9.8e-4 0.76737,0.10361 0.96737,0.48421 0.32906,0.65265 0.33483,1.46154 0.004,2.08929 h 5.3e-4 c -0.20003,0.38007 -0.61018,0.48532 -0.96533,0.48368 h -7.78815 z"
           style="fill:#000000;stroke-width:0.622006"
           id="path1371" />
        <path
           id="path6-2"
           d="m 872.84255,529.55133 h 7.71226 l -9.9e-4,-2.76743 h 3.65337 l -10e-4,8.1921 H 880.555 v -3.24338 h -7.71232 v 3.24338 h -3.64665 l -0.005,-8.1921 3.65173,-0.002 z"
           style="fill:#000000;stroke-width:0.622006" />
      </g>
    </g>
  </g>
</svg>
