<?xml version="1.0" encoding="UTF-8" standalone="no"?>
<svg
   xmlns:dc="http://purl.org/dc/elements/1.1/"
   xmlns:cc="http://creativecommons.org/ns#"
   xmlns:rdf="http://www.w3.org/1999/02/22-rdf-syntax-ns#"
   xmlns:svg="http://www.w3.org/2000/svg"
   xmlns="http://www.w3.org/2000/svg"
   xmlns:sodipodi="http://sodipodi.sourceforge.net/DTD/sodipodi-0.dtd"
   xmlns:inkscape="http://www.inkscape.org/namespaces/inkscape"
   inkscape:export-ydpi="300"
   inkscape:export-xdpi="300"
   inkscape:export-filename="C:\Users\Martin\Desktop\Archivos Gonzalo\Logos Marcas\Babolat_box.png"
   width="172mm"
   height="43mm"
   viewBox="0 0 172 43"
   version="1.1"
   id="svg8"
   inkscape:version="1.0 (4035a4fb49, 2020-05-01)"
   sodipodi:docname="Nox.svg">
  <defs
     id="defs2">
    <clipPath
       clipPathUnits="userSpaceOnUse"
       id="clipPath1026">
      <rect
         style="fill:#000000;fill-opacity:1;stroke:none;stroke-width:6.8;stroke-linecap:round;stroke-linejoin:round;stroke-miterlimit:4;stroke-dasharray:none;stroke-opacity:1"
         id="rect1028"
         width="100.76061"
         height="30.201456"
         x="252.5697"
         y="119.46947" />
    </clipPath>
  </defs>
  <sodipodi:namedview
     id="base"
     pagecolor="#ffffff"
     bordercolor="#666666"
     borderopacity="1.0"
     inkscape:pageopacity="0.0"
     inkscape:pageshadow="2"
     inkscape:zoom="0.25"
     inkscape:cx="832.48688"
     inkscape:cy="-394.75055"
     inkscape:document-units="mm"
     inkscape:current-layer="layer1"
     inkscape:document-rotation="0"
     showgrid="false"
     inkscape:snap-bbox="true"
     inkscape:snap-center="true"
     inkscape:snap-smooth-nodes="true"
     showguides="true"
     inkscape:guide-bbox="true"
     inkscape:snap-intersection-paths="true"
     inkscape:snap-global="false"
     inkscape:object-paths="true"
     inkscape:window-width="1920"
     inkscape:window-height="1017"
     inkscape:window-x="-8"
     inkscape:window-y="-8"
     inkscape:window-maximized="1" />
  <metadata
     id="metadata5">
    <rdf:RDF>
      <cc:Work
         rdf:about="">
        <dc:format>image/svg+xml</dc:format>
        <dc:type
           rdf:resource="http://purl.org/dc/dcmitype/StillImage" />
        <dc:title></dc:title>
      </cc:Work>
    </rdf:RDF>
  </metadata>
  <g
     inkscape:label="Layer 1"
     inkscape:groupmode="layer"
     id="layer1">
    <g
       transform="translate(-183.59258,1.0583333)"
       id="g1479">
      <path
         id="rect1036"
         style="opacity:1;fill:#ff4238;fill-opacity:1;stroke:none;stroke-width:6.79997;stroke-linecap:round;stroke-linejoin:round"
         d="m 222.77001,10.676347 v 4.47973 14.57725 h 6.14734 v -14.57725 h 14.45403 a 2.8227498,2.8227498 0 0 1 2.82275,2.82247 v 11.75478 h 5.89616 v -11.75478 -2.25204 c 0,-3.19068 -2.41398,-5.05016 -5.40188,-5.05016 h -3.31703 z"
         inkscape:export-filename="C:\Users\Martin\Desktop\Archivos Gonzalo\Logos Marcas\Nox_no_box.png"
         inkscape:export-xdpi="300"
         inkscape:export-ydpi="300" />
      <path
         id="rect1055"
         style="opacity:1;fill:#ff4238;fill-opacity:1;stroke:none;stroke-width:6.79997;stroke-linecap:round;stroke-linejoin:round"
         d="m 260.46111,10.676347 c -3.47411,0 -5.35485,1.79386 -5.35485,4.77797 v 14.27901 h 0.81463 v 6.1e-4 h 21.95226 0.41054 0.9524 c 3.37722,0 5.04427,-1.65403 5.04427,-4.14256 v -14.38175 h -6e-4 v -0.53319 h -22.58237 z m 3.15264,4.47973 h 14.82199 v 7.87348 c 0,1.63116 -1.8058,2.35007 -2.80596,2.35005 h -14.3549 v -7.92332 l 5.7e-4,-5.4e-4 a 2.3388485,2.3388485 0 0 1 2.33828,-2.29966 z"
         inkscape:export-filename="C:\Users\Martin\Desktop\Archivos Gonzalo\Logos Marcas\Nox_no_box.png"
         inkscape:export-xdpi="300"
         inkscape:export-ydpi="300" />
      <path
         id="rect1087"
         style="opacity:1;fill:#ff4238;fill-opacity:1;stroke:none;stroke-width:6.79997;stroke-linecap:round;stroke-linejoin:round"
         d="m 287.21906,10.676347 c -0.28259,0 -0.50995,0.22764 -0.50995,0.51023 0,0.16063 0.0682,0.28863 0.17167,0.38169 l 9.14987,8.2294 c 0.11004,0.0989 0.18987,0.23379 0.18987,0.40717 0,0.17339 -0.0798,0.3082 -0.18987,0.40717 l -9.14987,8.22968 c -0.10351,0.0931 -0.17167,0.22106 -0.17167,0.38168 0,0.2826 0.22736,0.50996 0.50995,0.50996 h 5.22882 c 0.36858,0 0.60548,-0.0752 0.85663,-0.23523 l 0.005,-0.002 11.56491,-7.18206 a 2.9868263,2.9868263 0 0 1 -0.87205,-2.10894 2.9868263,2.9868263 0 0 1 0.87176,-2.10896 l -11.56462,-7.18207 -0.005,-0.002 c -0.25115,-0.16009 -0.48805,-0.23523 -0.85663,-0.23523 z m 23.14157,0 c -0.51936,0 -0.95316,0.13607 -1.31869,0.37021 l -6.35176,3.97117 3.65585,2.26997 a 2.9868263,2.9868263 0 0 1 0.64214,-0.0698 2.9868263,2.9868263 0 0 1 1.76925,0.58052 l 6.92724,-6.23023 c 0.10351,-0.093 0.17167,-0.22107 0.17167,-0.38169 0,-0.28259 -0.22764,-0.51022 -0.51023,-0.51022 z m -14.24849,0.2568 5.19355,3.22488 5.15825,-3.22488 z m 12.64528,11.67803 a 2.9868263,2.9868263 0 0 1 -1.76925,0.58052 2.9868263,2.9868263 0 0 1 -0.64185,-0.07 l -3.65614,2.27025 6.35176,3.97119 c 0.36553,0.23413 0.79934,0.37021 1.31869,0.37021 h 4.98547 c 0.28259,0 0.51023,-0.22736 0.51023,-0.50996 0,-0.16062 -0.0682,-0.28861 -0.17167,-0.38169 z m -7.45173,3.64046 -5.19355,3.22489 h 10.3518 z"
         inkscape:export-filename="C:\Users\Martin\Desktop\Archivos Gonzalo\Logos Marcas\Nox_no_box.png"
         inkscape:export-xdpi="300"
         inkscape:export-ydpi="300" />
    </g>
  </g>
</svg>
